<svg xmlns="http://www.w3.org/2000/svg" width="155.99" height="389.37" viewBox="0 0 155.99 389.37"><defs><linearGradient id="a" x1="142.73" x2="142.73" y1="284.64" y2="7.94" gradientUnits="userSpaceOnUse"><stop offset="0" stop-color="#003cff"/><stop offset="1" stop-color="#fff"/></linearGradient></defs><g fill="#fff8ed" data-name="Layer 11"><path d="M.21 246.5h155.43v142.87H.21zM101.41 6.42h49.23v47.85h-49.23z"/><path d="M130.26 6.42h25.38V246.5h-25.38z"/></g><g data-name="Layer 1"><path d="M54.71 294.14H81.3v78.06H54.71zM141.48 294.15h2.47v78.06h-2.47z" opacity=".05"/><path fill="none" stroke="rgba(157, 157, 156, .85)" stroke-dasharray="2 2" stroke-width=".15" d="M.05 294.14h155.94M.05 320.16h155.94M.05 346.18h155.94"/><path fill="none" stroke="#003cff" stroke-width=".4" d="M143.95 7.94h-38.99"/></g><path fill="none" stroke="#9d9d9c" stroke-width=".25" d="M4.89 372.33h139.07"/><g fill="none" stroke-linejoin="round" data-name="Layer 10"><path stroke="#fff" stroke-width="2" d="m4.89 359.54 13.75-.07h2.05c.24 0 .47.06.68.18l1.79 1.04c.2.12.44.18.68.18h1.69c.24 0 .47-.06.68-.18l1.68-.98c.27-.16.47-.4.58-.69l.99-2.66c.43-1.17 2.08-1.17 2.51 0l.83 2.24c.19.53.7.88 1.26.88h.41c.62 0 1.17-.43 1.31-1.04l1.61-6.99c.24-1.04 1.55-1.4 2.28-.62l.69.73 2.01 2.13c.25.27.61.42.97.42h3.94c.2 0 .39-.04.57-.13l1.87-.88c.18-.08.37-.13.57-.13h3.37c.66 0 1.22-.48 1.32-1.14l2.06-13.29c.1-.65.66-1.14 1.32-1.14h.68c.37 0 .72.15.97.42.79.84 2.19.36 2.31-.78l2.1-20.49c0-.06.01-.11.03-.16l1.98-8.6c.2-.88 1.21-1.31 1.99-.85l.52.31c.21.12.44.19.68.19h1.75c.2 0 .39.04.57.13l2.08.98s.07.03.1.05l1.86 1.08c.32.19.55.5.63.86l2.13 9.27c.09.4.36.74.74.91l1.1.52c.44.21.74.64.77 1.13l2.29 38.37c.04.71.63 1.26 1.34 1.26h.06c.64 0 1.18-.45 1.31-1.07l1.66-8.01a1.342 1.342 0 0 1 2.29-.65l.47.5c.12.12.25.22.4.29l1.64.77c.34.16.6.46.71.82l1.78 5.86c.24.78 1.11 1.17 1.85.82l.34-.16c.42-.2.71-.59.76-1.05l2.31-18.99s.01-.07.02-.11l2.1-10.09c.15-.72.96-1.08 1.59-.71.58.34 1.33.07 1.56-.57l1.88-5.3c.06-.18.16-.34.29-.48l1.82-1.91c.25-.27.6-.42.97-.42h1.26c.37 0 .72.15.97.42l1.91 2.01c.07.07.12.15.17.23l1.71 2.82c.36.59 1.1.81 1.72.52.71-.33 1.55.01 1.83.75l1.81 4.88c.06.17.16.33.29.46l1.25 1.31c.53.56 1.41.56 1.94 0l1.44-1.51 2.25-2.38c.1-.11.19-.23.25-.37l1.96-4.38c.22-.48.7-.79 1.22-.79h.96c.37 0 .72.15.97.42l1.86 1.97c.1.11.19.23.25.37l.32.71c.56 1.24 2.4.96 2.55-.4l1.85-16.09 2.46-18.72"/><path stroke="#805533" stroke-width="1.1" d="m4.89 359.54 13.75-.07h2.05c.24 0 .47.06.68.18l1.79 1.04c.2.12.44.18.68.18h1.69c.24 0 .47-.06.68-.18l1.68-.98c.27-.16.47-.4.58-.69l.99-2.66c.43-1.17 2.08-1.17 2.51 0l.83 2.24c.19.53.7.88 1.26.88h.41c.62 0 1.17-.43 1.31-1.04l1.61-6.99c.24-1.04 1.55-1.4 2.28-.62l.69.73 2.01 2.13c.25.27.61.42.97.42h3.94c.2 0 .39-.04.57-.13l1.87-.88c.18-.08.37-.13.57-.13h3.37c.66 0 1.22-.48 1.32-1.14l2.06-13.29c.1-.65.66-1.14 1.32-1.14h.68c.37 0 .72.15.97.42.79.84 2.19.36 2.31-.78l2.1-20.49c0-.06.01-.11.03-.16l1.98-8.6c.2-.88 1.21-1.31 1.99-.85l.52.31c.21.12.44.19.68.19h1.75c.2 0 .39.04.57.13l2.08.98s.07.03.1.05l1.86 1.08c.32.19.55.5.63.86l2.13 9.27c.09.4.36.74.74.91l1.1.52c.44.21.74.64.77 1.13l2.29 38.37c.04.71.63 1.26 1.34 1.26h.06c.64 0 1.18-.45 1.31-1.07l1.66-8.01a1.342 1.342 0 0 1 2.29-.65l.47.5c.12.12.25.22.4.29l1.64.77c.34.16.6.46.71.82l1.78 5.86c.24.78 1.11 1.17 1.85.82l.34-.16c.42-.2.71-.59.76-1.05l2.31-18.99s.01-.07.02-.11l2.1-10.09c.15-.72.96-1.08 1.59-.71.58.34 1.33.07 1.56-.57l1.88-5.3c.06-.18.16-.34.29-.48l1.82-1.91c.25-.27.6-.42.97-.42h1.26c.37 0 .72.15.97.42l1.91 2.01c.07.07.12.15.17.23l1.71 2.82c.36.59 1.1.81 1.72.52.71-.33 1.55.01 1.83.75l1.81 4.88c.06.17.16.33.29.46l1.25 1.31c.53.56 1.41.56 1.94 0l1.44-1.51 2.25-2.38c.1-.11.19-.23.25-.37l1.96-4.38c.22-.48.7-.79 1.22-.79h.96c.37 0 .72.15.97.42l1.86 1.97c.1.11.19.23.25.37l.32.71c.56 1.24 2.4.96 2.55-.4l1.85-16.09 2.41-18.38"/></g><g fill="none" data-name="Layer 8"><path stroke="#fff" stroke-linecap="round" stroke-linejoin="round" stroke-width="1.6" d="m4.89 365.97 2.62.61s0 0 0 0l2.32.69c.2.06.39 0 .58-.15l2.14-1.77a.64.64 0 0 1 .41-.17l2.41-.08h0l2.42.05q.195 0 .39.15l2.11 1.62c.21.16.44.19.65.09l2.19-1.06c.07-.03.13-.08.19-.13l2.5-2.19s.04-.03.06-.04l2.59-1.54 2.61-1.46h.02l2.44-.89c.12-.04.23-.12.35-.24l2.46-2.64 2.08-2.48c.35-.41.74-.45 1.09-.09l2.07 2.06 2.43 2.41c.13.13.25.31.37.53l1.85 3.66c.38.75.85.97 1.29.61l1.8-1.49c.08-.07.16-.11.25-.14l2.28-.75c.15-.05.29-.16.43-.33l2.37-2.91s.06-.07.09-.1l2.25-2.01c.21-.19.41-.51.57-.93l1.94-5.02c.28-.72.64-1.12 1.01-1.13l1.85-.06c.13 0 .26-.06.38-.15l1.92-1.49c.34-.26.69-.19 1.01.21l1.35 1.68c.48.6 1.04.45 1.47-.4l1.58-3.08c.23-.44.49-.7.77-.75l2.2-.4h.01l2.06-.74c.36-.13.72.11 1.03.67l2.07 3.86c.05.1.11.19.16.27l2.3 3.2c.16.22.33.36.5.42l1.96.61c.26.08.52-.03.76-.31l2.08-2.49c.12-.14.23-.33.34-.56l2.23-4.88c.16-.34.33-.59.52-.74l2.32-1.84s.02-.02.03-.02l2.58-1.45s.04-.01.06 0l2.4 1.32c.13.07.26.09.39.07l1.81-.33c.4-.07.77-.59 1.04-1.44l2.15-6.83c.04-.12.07-.24.1-.36l2.52-10.02c.04-.16.08-.31.13-.45l2.11-6.41c.24-.73.64-.74.88 0l2.1 6.35c.06.17.12.33.18.47l2.26 4.94c.17.38.37.65.59.79l1.42.93c.54.36 1.11-.16 1.48-1.36l1.52-4.9c.31-1.01.77-1.55 1.24-1.46l1.86.35h.02l2.16 1.05c.3.14.58.54.8 1.13l1.75 4.74c.34.91.8 1.34 1.26 1.16l1.56-.61c.22-.09.43-.31.61-.64l2.01-3.66c.22-.39.39-.93.52-1.57l2.35-12.17c.05-.26.09-.54.12-.83l2.24-20.82c.2-1.87.81-3.14 1.5-3.09l.95.07c.33.02.66.36.92.95h0c.95 2.17 2.37.45 2.48-3.02"/><path stroke="#9d9d9c" stroke-width=".5" d="M11.44 372.21v2.64M4.89 372.21v2.64M42.91 372.21v2.64M74.38 372.21v2.64M105.85 372.21v2.64M137.32 372.21v2.64M143.96 372.21v2.64"/><path stroke="url(#a)" stroke-width="1.1" d="m141.51 284.63 2.44-276.69"/><path stroke="#003cff" stroke-linecap="round" stroke-linejoin="round" stroke-width="1.1" d="m4.89 365.97 2.62.61s0 0 0 0l2.32.69c.2.06.39 0 .58-.15l2.14-1.77a.64.64 0 0 1 .41-.17l2.41-.08h0l2.42.05q.195 0 .39.15l2.11 1.62c.21.16.44.19.65.09l2.19-1.06c.07-.03.13-.08.19-.13l2.5-2.19s.04-.03.06-.04l2.59-1.54 2.61-1.46h.02l2.44-.89c.12-.04.23-.12.35-.24l2.46-2.64 2.08-2.48c.35-.41.74-.45 1.09-.09l2.07 2.06 2.43 2.41c.13.13.25.31.37.53l1.85 3.66c.38.75.85.97 1.29.61l1.8-1.49c.08-.07.16-.11.25-.14l2.28-.75c.15-.05.29-.16.43-.33l2.37-2.91s.06-.07.09-.1l2.25-2.01c.21-.19.41-.51.57-.93l1.94-5.02c.28-.72.64-1.12 1.01-1.13l1.85-.06c.13 0 .26-.06.38-.15l1.92-1.49c.34-.26.69-.19 1.01.21l1.35 1.68c.48.6 1.04.45 1.47-.4l1.58-3.08c.23-.44.49-.7.77-.75l2.2-.4h.01l2.06-.74c.36-.13.72.11 1.03.67l2.07 3.86c.05.1.11.19.16.27l2.3 3.2c.16.22.33.36.5.42l1.96.61c.26.08.52-.03.76-.31l2.08-2.49c.12-.14.23-.33.34-.56l2.23-4.88c.16-.34.33-.59.52-.74l2.32-1.84s.02-.02.03-.02l2.58-1.45s.04-.01.06 0l2.4 1.32c.13.07.26.09.39.07l1.81-.33c.4-.07.77-.59 1.04-1.44l2.15-6.83c.04-.12.07-.24.1-.36l2.52-10.02c.04-.16.08-.31.13-.45l2.11-6.41c.24-.73.64-.74.88 0l2.1 6.35c.06.17.12.33.18.47l2.26 4.94c.17.38.37.65.59.79l1.42.93c.54.36 1.11-.16 1.48-1.36l1.52-4.9c.31-1.01.77-1.55 1.24-1.46l1.86.35h.02l2.16 1.05c.3.14.58.54.8 1.13l1.75 4.74c.34.91.8 1.34 1.26 1.16l1.56-.61c.22-.09.43-.31.61-.64l2.01-3.66c.22-.39.39-.93.52-1.57l2.35-12.17c.05-.26.09-.54.12-.83l2.24-20.82c.2-1.87.81-3.14 1.5-3.09l.95.07c.33.02.66.36.92.95h0c.95 2.17 2.37.45 2.48-3.02"/></g><path fill="none" stroke="#000" stroke-miterlimit="10" stroke-width=".35" d="M149.08 374.83h1.2l1.19-1.18 1.18 2.41 1.21-1.21h1.16" data-name="Layer 5"/><g fill="#003cff" data-name="Layer 9"><g opacity=".3"><path d="M133.38 296.45c-.56 0-1.02-.46-1.02-1.02s.46-1.02 1.02-1.02 1.01.46 1.01 1.02-.46 1.02-1.01 1.02"/><path d="M133.38 294.87a.56.56 0 1 1 0 1.12c-.31 0-.57-.25-.57-.56s.25-.56.57-.56m0-.9c-.81 0-1.47.66-1.47 1.46s.66 1.46 1.47 1.46 1.46-.66 1.46-1.46-.66-1.46-1.46-1.46"/></g><g opacity=".3"><path d="M136 253.03c-.56 0-1.01-.46-1.01-1.02s.46-1.02 1.01-1.02 1.02.46 1.02 1.02-.46 1.02-1.02 1.02"/><path d="M136 251.45c.31 0 .56.25.56.57s-.25.56-.56.56-.56-.25-.56-.56.25-.57.56-.57m0-.9c-.81 0-1.46.66-1.46 1.47s.66 1.46 1.46 1.46 1.46-.66 1.46-1.46-.66-1.47-1.46-1.47"/></g><g opacity=".3"><path d="M138.51 313.76c-.56-.07-.96-.57-.89-1.13.06-.51.49-.9 1.01-.9h.12a1.02 1.02 0 0 1-.12 2.03z"/><path d="M138.63 312.18h.07c.31.04.53.32.5.63-.03.29-.28.5-.56.5h-.07a.58.58 0 0 1-.5-.63c.03-.29.28-.5.56-.5m0-.9c-.74 0-1.37.56-1.45 1.29-.05.39.06.77.31 1.08.24.31.59.5.98.55.06 0 .11.01.17.01.74 0 1.37-.56 1.45-1.29.05-.39-.06-.77-.31-1.08-.24-.31-.59-.5-.98-.55-.06 0-.11-.01-.17-.01"/></g><g opacity=".3"><path d="M141.13 314.37c-.55-.06-.95-.57-.89-1.13.06-.51.49-.9 1.01-.9h.12a1.02 1.02 0 0 1-.12 2.03z"/><path d="M141.25 312.8h.07c.31.04.53.32.5.63-.03.29-.28.5-.56.5h-.07a.58.58 0 0 1-.5-.63c.03-.29.28-.5.56-.5m0-.9c-.74 0-1.37.56-1.45 1.29-.09.8.48 1.53 1.28 1.63.06 0 .11.01.17.01.74 0 1.37-.56 1.45-1.29.09-.8-.48-1.53-1.28-1.63-.06 0-.11-.01-.17-.01"/></g><g opacity=".3"><path d="M130.64 313.21c-.56-.07-.96-.57-.89-1.13.06-.51.49-.9 1.01-.9h.12a1.02 1.02 0 0 1-.12 2.03z"/><path d="M130.76 311.64h.07c.31.04.53.32.5.63-.03.29-.28.5-.56.5h-.07a.58.58 0 0 1-.5-.63c.03-.29.28-.5.56-.5m0-.9c-.74 0-1.37.56-1.45 1.29-.09.8.48 1.53 1.28 1.63.06 0 .11.01.17.01.74 0 1.37-.56 1.45-1.29.09-.8-.48-1.53-1.28-1.63-.06 0-.11-.01-.17-.01"/></g><g opacity=".3"><path d="M128.02 326.3c-.56-.07-.96-.57-.89-1.13.06-.51.5-.9 1.01-.9h.12a1.033 1.033 0 0 1 .89 1.14c-.06.51-.5.9-1.01.9h-.12Z"/><path d="M128.14 324.73h.07c.31.04.53.32.5.63-.03.29-.28.5-.56.5h-.07a.58.58 0 0 1-.5-.63c.03-.29.28-.5.56-.5m0-.9c-.74 0-1.37.56-1.45 1.29-.05.39.06.77.31 1.08.24.31.59.5.98.55.06 0 .11.01.17.01.74 0 1.37-.56 1.45-1.29.05-.39-.06-.77-.31-1.08-.24-.31-.59-.5-.98-.55-.06 0-.11-.01-.17-.01"/></g><g opacity=".3"><path d="M125.4 337.06c-.27-.03-.51-.17-.68-.38s-.24-.48-.21-.75c.06-.51.49-.9 1.01-.9h.12a1.033 1.033 0 0 1 .89 1.14c-.06.51-.49.9-1.01.9h-.12Z"/><path d="M125.52 335.48h.07c.31.04.53.32.5.63-.03.29-.28.5-.56.5h-.07a.58.58 0 0 1-.5-.63c.03-.29.28-.5.56-.5m0-.9c-.74 0-1.37.56-1.45 1.29-.09.8.48 1.53 1.28 1.63.06 0 .11.01.17.01.74 0 1.37-.56 1.45-1.29.09-.8-.48-1.53-1.28-1.63-.06 0-.11-.01-.17-.01"/></g><g opacity=".3"><path d="M122.78 327.53c-.56-.06-.96-.57-.89-1.13.06-.51.49-.9 1.01-.9h.12c.55.07.95.58.89 1.13-.06.51-.49.9-1.01.9z"/><path d="M122.89 325.96h.07c.31.04.53.32.5.63-.03.29-.28.5-.56.5h-.07a.58.58 0 0 1-.5-.63c.03-.29.28-.5.56-.5m0-.9c-.74 0-1.37.56-1.45 1.29-.05.39.06.77.31 1.08.24.31.59.5.98.55.06 0 .11.01.17.01.74 0 1.37-.56 1.45-1.29.05-.39-.06-.77-.31-1.08-.24-.31-.59-.5-.98-.55-.06 0-.11-.01-.17-.01"/></g><g opacity=".3"><path d="M120.15 329.4c-.56-.07-.96-.57-.89-1.13.06-.51.5-.9 1.01-.9h.12a1.033 1.033 0 0 1 .89 1.14c-.06.51-.5.9-1.01.9h-.12Z"/><path d="M120.27 327.82h.07c.31.04.53.32.5.63-.03.29-.28.5-.56.5h-.07a.58.58 0 0 1-.5-.63c.03-.29.28-.5.56-.5m0-.9c-.74 0-1.37.56-1.45 1.29-.09.8.48 1.53 1.28 1.63.06 0 .11.01.17.01.74 0 1.37-.56 1.45-1.29.09-.8-.48-1.53-1.28-1.63-.06 0-.11-.01-.17-.01"/></g><g opacity=".3"><path d="M114.91 323.72c-.56-.07-.96-.57-.89-1.13.06-.51.49-.9 1.01-.9h.12a1.02 1.02 0 0 1-.12 2.03z"/><path d="M115.03 322.14h.07c.31.04.53.32.5.63-.03.29-.28.5-.56.5h-.07a.58.58 0 0 1-.5-.63c.03-.29.28-.5.56-.5m0-.9c-.74 0-1.37.56-1.45 1.29-.09.8.48 1.53 1.28 1.63.06 0 .11.01.17.01.74 0 1.37-.56 1.45-1.29.05-.39-.06-.77-.31-1.08-.24-.31-.59-.5-.98-.55-.06 0-.11-.01-.17-.01Z"/></g><g opacity=".3"><path d="M112.4 327.79a1.013 1.013 0 0 1-.91-1.47c.17-.35.52-.56.91-.56a1.013 1.013 0 0 1 .91 1.47c-.17.35-.52.56-.91.56"/><path d="M112.4 326.21a.565.565 0 1 1-.26 1.07.565.565 0 0 1 .26-1.07m0-.9c-.56 0-1.06.31-1.31.81a1.476 1.476 0 0 0 1.31 2.13c.56 0 1.06-.31 1.31-.81a1.476 1.476 0 0 0-1.31-2.13"/></g><g opacity=".3"><path d="M109.78 341.09c-.5 0-.92-.35-1-.84-.09-.55.28-1.08.83-1.17h.04l.14-.02c.5 0 .92.35 1 .84.05.27-.01.53-.17.76-.16.22-.39.37-.66.42h-.04l-.14.02Z"/><path d="M109.78 339.51c.27 0 .51.19.56.47.05.31-.15.6-.46.65h-.1c-.27 0-.51-.19-.56-.47a.56.56 0 0 1 .46-.65zm0-.9a1.473 1.473 0 0 0-1.45 1.71c.12.7.73 1.22 1.44 1.22.08 0 .17 0 .25-.02a1.473 1.473 0 0 0 1.2-1.69c-.12-.7-.73-1.22-1.44-1.22"/></g><g opacity=".3"><path d="M99.29 342.43c-.49 0-.92-.35-1-.84-.09-.55.28-1.08.83-1.17h.04l.14-.02c.49 0 .92.35 1 .84.05.27-.01.54-.17.76s-.39.37-.66.41h-.04l-.13.02Z"/><path d="M99.29 340.85c.27 0 .51.19.56.47.05.31-.15.6-.46.65h-.1c-.27 0-.51-.19-.56-.47a.56.56 0 0 1 .46-.65zm0-.9a1.46 1.46 0 0 0-1.44 1.71c.12.7.73 1.22 1.44 1.22.08 0 .17 0 .25-.02.8-.14 1.33-.9 1.19-1.69-.12-.7-.73-1.22-1.44-1.22"/></g><g opacity=".3"><path d="M96.67 342.23c-.5 0-.92-.35-1-.84-.05-.27.01-.53.17-.76.16-.22.39-.37.66-.42h.04l.14-.02c.49 0 .92.35 1 .84.09.55-.28 1.08-.83 1.17h-.04l-.14.02Z"/><path d="M96.67 340.65c.27 0 .51.19.56.47.05.31-.15.6-.46.65h-.1c-.27 0-.51-.19-.56-.47a.56.56 0 0 1 .46-.65zm0-.9a1.46 1.46 0 0 0-1.44 1.71c.12.7.73 1.22 1.44 1.22.08 0 .17 0 .25-.02a1.473 1.473 0 0 0 1.2-1.69c-.12-.7-.73-1.22-1.44-1.22Z"/></g><g opacity=".3"><path d="M94.05 342.23c-.5 0-.92-.35-1-.84-.05-.27.01-.53.17-.76.16-.22.39-.37.66-.42h.04l.14-.02c.5 0 .92.35 1 .84.09.55-.28 1.08-.83 1.17h-.04l-.14.02Z"/><path d="M94.05 340.65c.27 0 .51.19.56.47.05.31-.15.6-.46.65h-.1c-.27 0-.51-.19-.56-.47a.56.56 0 0 1 .46-.65zm0-.9a1.46 1.46 0 0 0-1.44 1.71c.12.7.73 1.22 1.44 1.22.08 0 .17 0 .25-.02a1.473 1.473 0 0 0 1.2-1.69c-.12-.7-.73-1.22-1.44-1.22Z"/></g><g opacity=".3"><path d="M88.8 337.74c-.49 0-.92-.35-1-.84-.09-.55.28-1.08.83-1.17h.04l.14-.02c.49 0 .92.35 1 .84.09.55-.28 1.08-.83 1.17h-.04z"/><path d="M88.8 336.16c.27 0 .51.19.56.47.05.31-.15.6-.46.65h-.1c-.27 0-.51-.19-.56-.47a.56.56 0 0 1 .46-.65zm0-.9a1.46 1.46 0 0 0-1.44 1.71c.12.7.73 1.22 1.44 1.22.08 0 .17 0 .25-.02a1.473 1.473 0 0 0 1.2-1.69c-.12-.7-.73-1.22-1.44-1.22Z"/></g><g opacity=".3"><path d="M91.42 343.9c-.49 0-.92-.35-1-.84-.09-.55.28-1.08.83-1.17h.04l.14-.02c.5 0 .92.35 1 .84.05.27-.01.54-.17.76s-.39.37-.66.42h-.04l-.14.02Z"/><path d="M91.42 342.32c.27 0 .51.19.56.47.05.31-.15.6-.46.65h-.1c-.27 0-.51-.19-.56-.47a.56.56 0 0 1 .46-.65zm0-.9a1.46 1.46 0 0 0-1.44 1.71c.12.7.73 1.22 1.44 1.22.08 0 .17 0 .25-.02a1.473 1.473 0 0 0 1.2-1.69c-.12-.7-.73-1.22-1.44-1.22Z"/></g><g opacity=".3"><path d="M86.18 346.63c-.5 0-.92-.35-1-.84-.05-.27.01-.53.17-.76.16-.22.39-.37.66-.42h.04l.14-.02c.49 0 .92.35 1 .84.09.55-.28 1.08-.83 1.17h-.04l-.14.02Z"/><path d="M86.18 345.05c.27 0 .51.19.56.47.05.31-.15.6-.46.65h-.1c-.27 0-.51-.19-.56-.47a.56.56 0 0 1 .46-.65zm0-.9a1.46 1.46 0 0 0-1.44 1.71c.12.7.73 1.22 1.44 1.22.08 0 .17 0 .25-.02a1.473 1.473 0 0 0 1.2-1.69c-.12-.7-.73-1.22-1.44-1.22Z"/></g><g opacity=".3"><path d="M83.56 350.14c-.49 0-.92-.35-1-.84-.09-.55.28-1.08.83-1.17h.04l.14-.02c.5 0 .92.35 1 .84.05.27-.01.54-.17.76s-.39.37-.66.42h-.04z"/><path d="M83.56 348.56c.27 0 .51.19.56.47.05.31-.15.6-.46.65h-.1c-.27 0-.51-.19-.56-.47a.56.56 0 0 1 .46-.65zm0-.9a1.46 1.46 0 0 0-1.44 1.71c.12.7.73 1.22 1.44 1.22.08 0 .17 0 .25-.02.8-.14 1.33-.9 1.19-1.69-.12-.7-.73-1.22-1.44-1.22"/></g><g opacity=".3"><path d="M80.94 354.92c-.49 0-.92-.35-1-.84-.09-.55.28-1.08.83-1.17h.04l.14-.02c.5 0 .92.35 1 .84.05.27-.01.54-.17.76s-.39.37-.66.42h-.04l-.14.02Z"/><path d="M80.94 353.34c.27 0 .51.19.56.47.05.31-.15.6-.46.65h-.1c-.27 0-.51-.19-.56-.47a.56.56 0 0 1 .46-.65zm0-.9a1.46 1.46 0 0 0-1.44 1.71c.12.7.73 1.22 1.44 1.22.08 0 .17 0 .25-.02a1.473 1.473 0 0 0 1.2-1.69c-.12-.7-.73-1.22-1.44-1.22Z"/></g><g opacity=".3"><path d="M78.31 356.05c-.5 0-.92-.35-1-.84-.05-.27.01-.53.17-.76.16-.22.39-.37.66-.42h.04l.14-.02c.49 0 .92.35 1 .84.09.55-.28 1.08-.83 1.17h-.04l-.14.02Z"/><path d="M78.31 354.47c.27 0 .51.19.56.47.05.31-.15.6-.46.65h-.1c-.27 0-.51-.19-.56-.47a.56.56 0 0 1 .46-.65zm0-.9a1.46 1.46 0 0 0-1.44 1.71c.12.7.73 1.22 1.44 1.22.08 0 .17 0 .25-.02.8-.14 1.33-.9 1.19-1.69-.12-.7-.73-1.22-1.44-1.22"/></g><g opacity=".3"><path d="M75.69 347.71c-.49 0-.92-.35-1-.84-.09-.55.28-1.08.83-1.17h.04l.14-.02c.5 0 .92.35 1 .84.05.27-.01.54-.17.76s-.39.37-.66.42h-.04l-.14.02Z"/><path d="M75.69 346.13c.27 0 .51.19.56.47.05.31-.15.6-.46.65h-.1c-.27 0-.51-.19-.56-.47a.56.56 0 0 1 .46-.65zm0-.9a1.473 1.473 0 0 0-1.45 1.71c.12.7.73 1.22 1.44 1.22.08 0 .17 0 .25-.02a1.473 1.473 0 0 0 1.2-1.69c-.12-.7-.73-1.22-1.44-1.22"/></g><g opacity=".3"><path d="M73.07 343.96c-.49 0-.92-.35-1-.84-.09-.55.28-1.08.83-1.17h.04l.14-.02c.5 0 .92.35 1 .84.05.27-.01.54-.17.76s-.39.37-.66.42h-.04l-.14.02Z"/><path d="M73.07 342.38c.27 0 .51.19.56.47.05.31-.15.6-.46.65h-.1c-.27 0-.51-.19-.56-.47a.56.56 0 0 1 .46-.65zm0-.9a1.473 1.473 0 0 0-1.45 1.71c.12.7.73 1.22 1.44 1.22.08 0 .17 0 .25-.02.8-.14 1.33-.9 1.19-1.69-.12-.7-.73-1.22-1.44-1.22Z"/></g><g opacity=".3"><path d="M70.45 341.38c-.5 0-.92-.35-1-.84-.05-.27.01-.54.17-.76s.39-.37.66-.42h.04l.14-.02c.49 0 .92.35 1 .84.09.55-.28 1.08-.83 1.17h-.04l-.14.02Z"/><path d="M70.45 339.8c.27 0 .51.19.56.47.05.31-.15.6-.46.65h-.1c-.27 0-.51-.19-.56-.47a.56.56 0 0 1 .46-.65zm0-.9a1.473 1.473 0 0 0-1.45 1.71c.12.7.73 1.22 1.44 1.22.08 0 .17 0 .25-.02a1.473 1.473 0 0 0 1.2-1.69c-.12-.7-.73-1.22-1.44-1.22"/></g><g opacity=".3"><path d="M67.82 350.54c-.49 0-.92-.35-1-.84-.09-.55.28-1.08.83-1.17h.04l.14-.02c.5 0 .92.35 1 .84.05.27-.01.54-.17.76s-.39.37-.66.42h-.04l-.14.02Z"/><path d="M67.82 348.96c.27 0 .51.19.56.47.05.31-.15.6-.46.65h-.1c-.27 0-.51-.19-.56-.47a.56.56 0 0 1 .46-.65zm0-.9a1.473 1.473 0 0 0-1.45 1.71c.12.7.73 1.22 1.44 1.22.08 0 .17 0 .25-.02.8-.14 1.33-.9 1.19-1.69-.12-.7-.73-1.22-1.44-1.22Z"/></g><g opacity=".3"><path d="M65.2 345.38c-.49 0-.92-.35-1-.84-.09-.55.28-1.08.83-1.17h.04l.14-.02c.5 0 .92.35 1 .84.05.27-.01.54-.17.76s-.39.37-.66.42h-.04l-.14.02Z"/><path d="M65.2 343.8c.27 0 .51.19.56.47.05.31-.15.6-.46.65h-.1c-.27 0-.51-.19-.56-.47a.56.56 0 0 1 .46-.65zm0-.9a1.473 1.473 0 0 0-1.45 1.71c.12.7.73 1.22 1.44 1.22.08 0 .17 0 .25-.02.8-.14 1.33-.9 1.19-1.69-.12-.7-.73-1.22-1.44-1.22Z"/></g><g opacity=".3"><path d="M59.96 340.76c-.49 0-.92-.35-1-.84-.09-.55.28-1.08.83-1.17h.04l.14-.02c.5 0 .92.35 1 .84.05.27-.01.54-.17.76s-.39.37-.66.42h-.04l-.14.02Z"/><path d="M59.96 339.18c.27 0 .51.19.56.47.05.31-.15.6-.46.65h-.1c-.27 0-.51-.19-.56-.47a.56.56 0 0 1 .46-.65zm0-.9a1.46 1.46 0 0 0-1.44 1.71c.12.7.73 1.22 1.44 1.22.08 0 .17 0 .25-.02a1.473 1.473 0 0 0 1.2-1.69c-.12-.7-.73-1.22-1.44-1.22Z"/></g><g opacity=".3"><path d="M62.58 356.71c-.5 0-.92-.35-1-.84-.05-.27.01-.53.17-.76.16-.22.39-.37.66-.42h.04l.14-.02c.49 0 .92.35 1 .84.09.55-.28 1.08-.83 1.17h-.04l-.14.02Z"/><path d="M62.58 355.13c.27 0 .51.19.56.47.05.31-.15.6-.46.65h-.1c-.27 0-.51-.19-.56-.47a.56.56 0 0 1 .46-.65zm0-.9a1.46 1.46 0 0 0-1.44 1.71c.12.7.73 1.22 1.44 1.22.08 0 .17 0 .25-.02a1.473 1.473 0 0 0 1.2-1.69c-.12-.7-.73-1.22-1.44-1.22Z"/></g><g opacity=".3"><path d="M57.33 351.52c-.49 0-.92-.35-1-.84-.09-.55.28-1.08.83-1.17h.04l.14-.02c.5 0 .92.35 1 .84.05.27-.01.54-.17.76s-.39.37-.66.42h-.04l-.14.02Z"/><path d="M57.34 349.94c.27 0 .51.19.56.47.05.31-.15.6-.46.65h-.1c-.27 0-.51-.19-.56-.47a.56.56 0 0 1 .46-.65zm0-.9a1.46 1.46 0 0 0-1.44 1.71c.12.7.73 1.22 1.44 1.22.08 0 .17 0 .25-.02a1.473 1.473 0 0 0 1.2-1.69c-.12-.7-.73-1.22-1.44-1.22Z"/></g><g opacity=".3"><path d="M54.71 356.96c-.5 0-.92-.35-1-.84-.05-.27.01-.53.17-.76.16-.22.39-.37.66-.42h.04l.14-.02c.49 0 .92.35 1 .84.09.55-.28 1.08-.83 1.17h-.04l-.14.02Z"/><path d="M54.71 355.37c.27 0 .51.19.56.47.05.31-.15.6-.46.65h-.1c-.27 0-.51-.19-.56-.47a.56.56 0 0 1 .46-.65zm0-.9a1.46 1.46 0 0 0-1.44 1.71c.12.7.73 1.22 1.44 1.22.08 0 .17 0 .25-.02a1.473 1.473 0 0 0 1.2-1.69c-.12-.7-.73-1.22-1.44-1.22Z"/></g><g opacity=".3"><path d="M49.46 358.57c-.5 0-.92-.35-1-.84-.05-.27.01-.53.17-.76.16-.22.39-.37.66-.42h.04l.14-.02c.49 0 .92.35 1 .84.09.55-.28 1.08-.83 1.17h-.04l-.14.02Z"/><path d="M49.47 356.99c.27 0 .51.19.56.47.05.31-.15.6-.46.65h-.1c-.27 0-.51-.19-.56-.47a.56.56 0 0 1 .46-.65zm0-.9a1.46 1.46 0 0 0-1.44 1.71c.12.7.73 1.22 1.44 1.22.08 0 .17 0 .25-.02a1.473 1.473 0 0 0 1.2-1.69c-.12-.7-.73-1.22-1.44-1.22Z"/></g><g opacity=".3"><path d="M52.09 361.07c-.5 0-.92-.35-1-.84-.05-.27.01-.54.17-.76s.39-.37.66-.42h.04l.14-.01c.49 0 .92.35 1 .84.09.55-.28 1.08-.83 1.17h-.04z"/><path d="M52.09 359.49c.27 0 .51.19.56.47.05.31-.15.6-.46.65h-.1c-.27 0-.51-.19-.56-.47a.56.56 0 0 1 .46-.65zm0-.9a1.46 1.46 0 0 0-1.44 1.71c.12.7.73 1.22 1.44 1.22.08 0 .17 0 .25-.02a1.473 1.473 0 0 0 1.2-1.69c-.12-.7-.73-1.22-1.44-1.22Z"/></g><g opacity=".3"><path d="M46.84 366.64a1.02 1.02 0 0 1-1.02-1.02 1.02 1.02 0 0 1 1.02-1.02 1.02 1.02 0 0 1 1.02 1.02 1.02 1.02 0 0 1-1.02 1.02"/><path d="M46.84 365.06c.14 0 .29.06.4.17.22.22.22.58 0 .8-.11.11-.25.17-.4.17s-.29-.06-.4-.17a.567.567 0 0 1 0-.8.56.56 0 0 1 .4-.17m0-.9a1.467 1.467 0 1 0-.002 2.93 1.467 1.467 0 0 0 .002-2.93"/></g><g opacity=".3"><path d="M44.22 363.67a1.02 1.02 0 0 1-1.02-1.02 1.02 1.02 0 0 1 1.02-1.02 1.02 1.02 0 0 1 1.02 1.02 1.02 1.02 0 0 1-1.02 1.02"/><path d="M44.22 362.09c.14 0 .29.06.4.17.22.22.22.58 0 .8-.11.11-.25.17-.4.17s-.29-.06-.4-.17a.567.567 0 0 1 0-.8.56.56 0 0 1 .4-.17m0-.9c-.39 0-.76.15-1.04.43s-.43.64-.43 1.04.15.76.43 1.04.64.43 1.04.43.76-.15 1.04-.43.43-.64.43-1.04-.15-.76-.43-1.04-.64-.43-1.04-.43"/></g><g opacity=".3"><path d="M41.6 365.03a1.02 1.02 0 0 1-1.02-1.02 1.02 1.02 0 0 1 1.02-1.02 1.02 1.02 0 0 1 1.02 1.02 1.02 1.02 0 0 1-1.02 1.02"/><path d="M41.6 363.45c.14 0 .29.06.4.17.22.22.22.58 0 .8-.11.11-.25.17-.4.17s-.29-.06-.4-.17a.567.567 0 0 1 0-.8.56.56 0 0 1 .4-.17m0-.9c-.39 0-.76.15-1.04.43s-.43.64-.43 1.04.15.76.43 1.04.64.43 1.04.43.76-.15 1.04-.43.43-.64.43-1.04-.15-.76-.43-1.04-.64-.43-1.04-.43"/></g><g opacity=".3"><path d="M38.98 351.09a1.02 1.02 0 0 1-1.02-1.02 1.02 1.02 0 0 1 1.02-1.02 1.02 1.02 0 0 1 1.02 1.02 1.02 1.02 0 0 1-1.02 1.02"/><path d="M38.98 349.51c.14 0 .29.06.4.17.22.22.22.58 0 .8-.11.11-.25.17-.4.17s-.29-.06-.4-.17a.567.567 0 0 1 0-.8.56.56 0 0 1 .4-.17m0-.9c-.39 0-.76.15-1.04.43s-.43.64-.43 1.04.15.76.43 1.04.64.43 1.04.43.76-.15 1.04-.43.43-.64.43-1.04-.15-.76-.43-1.04-.64-.43-1.04-.43"/></g><g opacity=".3"><path d="M36.36 355.89a1.02 1.02 0 0 1-1.02-1.02 1.02 1.02 0 0 1 1.02-1.02 1.02 1.02 0 0 1 1.02 1.02 1.02 1.02 0 0 1-1.02 1.02"/><path d="M36.36 354.31c.14 0 .29.06.4.17.22.22.22.58 0 .8-.11.11-.25.17-.4.17s-.29-.06-.4-.17a.567.567 0 0 1 0-.8.56.56 0 0 1 .4-.17m0-.9a1.467 1.467 0 1 0-.002 2.93 1.467 1.467 0 0 0 .002-2.93"/></g><g opacity=".3"><path d="M33.73 357.16a1.02 1.02 0 0 1-1.02-1.02 1.02 1.02 0 0 1 1.02-1.02 1.02 1.02 0 0 1 1.02 1.02 1.02 1.02 0 0 1-1.02 1.02"/><path d="M33.73 355.58c.14 0 .29.06.4.17.22.22.22.58 0 .8-.11.11-.25.17-.4.17s-.29-.06-.4-.17a.567.567 0 0 1 0-.8.56.56 0 0 1 .4-.17m0-.9a1.467 1.467 0 1 0-.002 2.93 1.467 1.467 0 0 0 .002-2.93"/></g><g opacity=".3"><path d="M28.49 364.23a1.02 1.02 0 0 1-1.02-1.02 1.022 1.022 0 0 1 1.02-1.02 1.02 1.02 0 0 1 1.02 1.02 1.02 1.02 0 0 1-1.02 1.02"/><path d="M28.49 362.65c.14 0 .29.06.4.17.22.22.22.58 0 .8-.11.11-.25.17-.4.17s-.29-.06-.4-.17a.567.567 0 0 1 0-.8.56.56 0 0 1 .4-.17m0-.9c-.39 0-.76.15-1.04.43s-.43.64-.43 1.04.15.76.43 1.04.64.43 1.04.43.76-.15 1.04-.43.43-.64.43-1.04-.15-.76-.43-1.04-.64-.43-1.04-.43"/></g><g opacity=".3"><path d="M25.87 359.99a1.02 1.02 0 0 1-1.02-1.02 1.02 1.02 0 0 1 1.02-1.02 1.02 1.02 0 0 1 1.02 1.02 1.02 1.02 0 0 1-1.02 1.02"/><path d="M25.87 358.41c.14 0 .29.06.4.17.22.22.22.58 0 .8-.11.11-.25.17-.4.17s-.29-.06-.4-.17a.567.567 0 0 1 0-.8.56.56 0 0 1 .4-.17m0-.9a1.467 1.467 0 1 0-.002 2.93 1.467 1.467 0 0 0 .002-2.93"/></g><g opacity=".3"><path d="M23.24 364.84a1.02 1.02 0 0 1-1.02-1.02 1.02 1.02 0 0 1 1.02-1.02 1.02 1.02 0 0 1 1.02 1.02 1.02 1.02 0 0 1-1.02 1.02"/><path d="M23.24 363.26c.14 0 .29.06.4.17.22.22.22.58 0 .8-.11.11-.25.17-.4.17s-.29-.06-.4-.17a.567.567 0 0 1 0-.8.56.56 0 0 1 .4-.17m0-.9c-.39 0-.76.15-1.04.43s-.43.64-.43 1.04.15.76.43 1.04.64.43 1.04.43.76-.15 1.04-.43.43-.64.43-1.04-.15-.76-.43-1.04-.64-.43-1.04-.43"/></g><g opacity=".3"><path d="M20.62 368.99c-.27 0-.53-.11-.72-.3-.39-.4-.39-1.04 0-1.44.19-.19.45-.3.72-.3s.53.11.72.3.3.45.3.72a1.02 1.02 0 0 1-1.02 1.02"/><path d="M20.62 367.41c.14 0 .29.06.4.17.22.22.22.58 0 .8-.11.11-.25.17-.4.17s-.29-.06-.4-.17a.567.567 0 0 1 0-.8.56.56 0 0 1 .4-.17m0-.9a1.467 1.467 0 1 0-.002 2.93 1.467 1.467 0 0 0 .002-2.93"/></g><g opacity=".3"><path d="M18 366.89a1.02 1.02 0 0 1-1.02-1.02 1.02 1.02 0 0 1 1.02-1.02 1.02 1.02 0 0 1 1.02 1.02 1.02 1.02 0 0 1-1.02 1.02"/><path d="M18 365.31c.14 0 .29.06.4.17.22.22.22.58 0 .8-.11.11-.25.17-.4.17s-.29-.06-.4-.17a.567.567 0 0 1 0-.8.56.56 0 0 1 .4-.17m0-.9c-.39 0-.76.15-1.04.43s-.43.64-.43 1.04.15.76.43 1.04.64.43 1.04.43.76-.15 1.04-.43.43-.64.43-1.04-.15-.76-.43-1.04-.64-.43-1.04-.43"/></g><g opacity=".3"><path d="M15.38 368.66a1.02 1.02 0 0 1-1.02-1.02 1.02 1.02 0 0 1 1.02-1.02c.27 0 .53.11.72.3s.3.45.3.72a1.02 1.02 0 0 1-1.02 1.02"/><path d="M15.38 367.08c.14 0 .29.06.4.17.22.22.22.58 0 .8-.11.11-.25.17-.4.17s-.29-.06-.4-.17a.567.567 0 0 1 0-.8.56.56 0 0 1 .4-.17m0-.9a1.467 1.467 0 1 0-.002 2.93 1.467 1.467 0 0 0 .002-2.93"/></g><g opacity=".3"><path d="M12.75 362.93c-.27 0-.53-.11-.72-.3-.4-.4-.4-1.04 0-1.44.19-.19.45-.3.72-.3s.53.11.72.3.3.45.3.72a1.02 1.02 0 0 1-1.02 1.02"/><path d="M12.76 361.35c.14 0 .29.06.4.17.22.22.22.58 0 .8-.11.11-.25.17-.4.17s-.29-.06-.4-.17a.567.567 0 0 1 0-.8.56.56 0 0 1 .4-.17m0-.9a1.467 1.467 0 1 0-.002 2.93 1.467 1.467 0 0 0 .002-2.93"/></g><g opacity=".3"><path d="M10.13 366.74a1.02 1.02 0 0 1-1.02-1.02 1.02 1.02 0 0 1 1.02-1.02 1.02 1.02 0 0 1 1.02 1.02 1.02 1.02 0 0 1-1.02 1.02"/><path d="M10.13 365.16c.14 0 .29.06.4.17.22.22.22.58 0 .8-.11.11-.25.17-.4.17s-.29-.06-.4-.17a.567.567 0 0 1 0-.8.56.56 0 0 1 .4-.17m0-.9c-.39 0-.76.15-1.04.43s-.43.64-.43 1.04.15.76.43 1.04.64.43 1.04.43.76-.15 1.04-.43.43-.64.43-1.04-.15-.76-.43-1.04-.64-.43-1.04-.43"/></g><g opacity=".3"><path d="M7.51 368.92a1.02 1.02 0 0 1-1.02-1.02 1.02 1.02 0 0 1 1.02-1.02 1.02 1.02 0 0 1 1.02 1.02 1.02 1.02 0 0 1-1.02 1.02"/><path d="M7.51 367.34c.14 0 .29.06.4.17.22.22.22.58 0 .8-.11.11-.25.17-.4.17s-.29-.06-.4-.17a.567.567 0 0 1 0-.8.56.56 0 0 1 .4-.17m0-.9a1.467 1.467 0 1 0-.002 2.93 1.467 1.467 0 0 0 .002-2.93"/></g><g opacity=".3"><path d="M4.89 369.43a1.02 1.02 0 0 1-1.02-1.02 1.02 1.02 0 0 1 1.02-1.02c.27 0 .53.11.72.3.39.4.39 1.04 0 1.44-.19.19-.45.3-.72.3"/><path d="M4.89 367.85c.14 0 .29.06.4.17.22.22.22.58 0 .8-.11.11-.25.17-.4.17s-.29-.06-.4-.17a.567.567 0 0 1 0-.8.56.56 0 0 1 .4-.17m0-.9a1.467 1.467 0 1 0-.002 2.93 1.467 1.467 0 0 0 .002-2.93"/></g><g opacity=".3"><path d="M31.11 360.44c-.27 0-.53-.11-.72-.3-.39-.4-.39-1.04 0-1.44.19-.19.45-.3.72-.3s.53.11.72.3.3.45.3.72a1.02 1.02 0 0 1-1.02 1.02"/><path d="M31.11 358.86c.14 0 .29.06.4.17.22.22.22.58 0 .8-.11.11-.25.17-.4.17s-.29-.06-.4-.17a.567.567 0 0 1 0-.8.56.56 0 0 1 .4-.17m0-.9c-.39 0-.76.15-1.04.43s-.43.64-.43 1.04.15.76.43 1.04.64.43 1.04.43.76-.15 1.04-.43.43-.64.43-1.04-.15-.76-.43-1.04-.64-.43-1.04-.43"/></g><g opacity=".3"><path d="M117.65 315.78a1.013 1.013 0 0 1-.91-1.47c.17-.35.52-.56.91-.56a1.027 1.027 0 0 1 .97.7c.08.26.07.53-.06.77-.17.34-.52.56-.91.56"/><path d="M117.65 314.2a.565.565 0 0 1 0 1.13.565.565 0 0 1 0-1.13m0-.9c-.56 0-1.06.31-1.31.81-.18.35-.21.75-.08 1.12.12.37.38.67.73.85a1.454 1.454 0 0 0 1.97-.65c.18-.35.21-.75.08-1.12-.12-.37-.38-.67-.73-.85-.2-.1-.43-.16-.66-.16"/></g><g opacity=".3"><path d="M107.16 318.58a1.013 1.013 0 1 1 0-2.03 1.027 1.027 0 0 1 .97.7c.08.26.07.53-.06.77-.17.34-.52.56-.91.56"/><path d="M107.16 317a.565.565 0 0 1 0 1.13.565.565 0 0 1 0-1.13m0-.9c-.56 0-1.06.31-1.31.81a1.476 1.476 0 0 0 1.31 2.13c.56 0 1.06-.31 1.31-.81.18-.35.21-.75.08-1.12-.12-.37-.38-.67-.73-.85-.2-.1-.43-.16-.66-.16"/></g><g opacity=".3"><path d="M101.92 317.27a1.013 1.013 0 0 1-.91-1.47c.17-.35.52-.56.91-.56a1.013 1.013 0 0 1 .91 1.47c-.17.35-.52.56-.91.56"/><path d="M101.92 315.69a.565.565 0 0 1 0 1.13.565.565 0 0 1 0-1.13m0-.9c-.56 0-1.06.31-1.31.81a1.476 1.476 0 0 0 1.31 2.13c.56 0 1.06-.31 1.31-.81.18-.35.21-.75.08-1.12-.12-.37-.38-.67-.73-.85-.2-.1-.43-.16-.66-.16"/></g><g opacity=".3"><path d="M104.53 310.73a1.013 1.013 0 1 1 0-2.03 1.013 1.013 0 0 1 .91 1.47c-.17.35-.52.56-.91.56"/><path d="M104.54 309.15a.565.565 0 0 1 0 1.13.565.565 0 0 1 0-1.13m0-.9c-.56 0-1.06.31-1.31.81-.18.35-.21.75-.08 1.12.12.37.38.67.73.85a1.454 1.454 0 0 0 1.97-.65c.18-.35.21-.75.08-1.12-.12-.37-.38-.67-.73-.85-.2-.1-.43-.16-.66-.16"/></g><path d="M143.95 8.96c-.56 0-1.01-.46-1.01-1.02s.46-1.02 1.01-1.02 1.02.46 1.02 1.02-.46 1.02-1.02 1.02"/><path d="M143.95 7.38c.31 0 .56.25.56.57s-.25.56-.56.56-.56-.25-.56-.56.25-.57.56-.57m0-.9c-.81 0-1.46.66-1.46 1.47s.66 1.46 1.46 1.46 1.46-.66 1.46-1.46-.66-1.47-1.46-1.47"/></g></svg>